<svg width="481" height="210" viewBox="0 0 481 210" fill="none" xmlns="http://www.w3.org/2000/svg">
<path d="M295.165 174.55C295.165 181.561 297.244 188.415 301.14 194.245C305.035 200.075 310.571 204.618 317.049 207.301C323.527 209.985 330.655 210.687 337.531 209.319C344.408 207.951 350.724 204.575 355.682 199.617C360.64 194.659 364.016 188.342 365.384 181.466C366.752 174.589 366.05 167.461 363.367 160.984C360.684 154.506 356.14 148.969 350.31 145.074C344.481 141.179 337.627 139.1 330.615 139.1C321.213 139.1 312.196 142.835 305.548 149.483C298.9 156.131 295.165 165.148 295.165 174.55ZM314.025 174.55C314.025 171.269 314.998 168.061 316.821 165.333C318.644 162.604 321.235 160.478 324.266 159.222C327.298 157.967 330.634 157.638 333.852 158.278C337.07 158.918 340.026 160.498 342.346 162.819C344.667 165.139 346.247 168.095 346.887 171.313C347.527 174.531 347.198 177.867 345.943 180.899C344.687 183.93 342.561 186.521 339.832 188.344C337.104 190.167 333.897 191.14 330.615 191.14C328.436 191.142 326.278 190.715 324.264 189.882C322.25 189.049 320.42 187.827 318.879 186.286C317.339 184.745 316.117 182.915 315.284 180.901C314.451 178.887 314.023 176.729 314.025 174.55Z" fill="#282828" fill-opacity="0.1"/>
<path d="M64.915 174.55C64.915 181.561 66.9942 188.415 70.8895 194.245C74.7848 200.075 80.3213 204.618 86.799 207.301C93.2766 209.985 100.405 210.687 107.281 209.319C114.158 207.951 120.474 204.575 125.432 199.617C130.39 194.659 133.766 188.342 135.134 181.466C136.502 174.589 135.8 167.461 133.117 160.984C130.434 154.506 125.89 148.969 120.06 145.074C114.23 141.179 107.377 139.1 100.365 139.1C95.7093 139.098 91.0985 140.013 86.7965 141.794C82.4946 143.575 78.5857 146.186 75.2935 149.478C72.0012 152.77 69.39 156.679 67.6092 160.981C65.8284 165.283 64.9129 169.894 64.915 174.55ZM83.7749 174.55C83.7749 171.269 84.7479 168.061 86.5709 165.333C88.3939 162.604 90.9849 160.478 94.0164 159.222C97.0478 157.967 100.384 157.638 103.602 158.278C106.82 158.918 109.776 160.498 112.096 162.819C114.416 165.139 115.997 168.095 116.637 171.313C117.277 174.531 116.948 177.867 115.693 180.899C114.437 183.93 112.311 186.521 109.582 188.344C106.854 190.167 103.646 191.14 100.365 191.14C98.186 191.142 96.0277 190.715 94.0139 189.882C92.0001 189.049 90.1704 187.827 88.6294 186.286C87.0885 184.745 85.8665 182.915 85.0335 180.901C84.2005 178.887 83.7728 176.729 83.7749 174.55Z" fill="#282828" fill-opacity="0.1"/>
<path d="M0.855469 15.5514C0.855469 19.6886 2.49898 23.6564 5.42442 26.5818C8.34987 29.5073 12.3176 31.1508 16.4548 31.1508H28.1703C19.3377 63.8906 13.6961 97.4087 11.3243 131.236V156.042H23.0398V167.757H57.579C58.3146 156.651 63.245 146.241 71.3709 138.636C79.4968 131.03 90.2104 126.799 101.34 126.799C112.47 126.799 123.184 131.03 131.31 138.636C139.436 146.241 144.366 156.651 145.102 167.757H287.829C288.565 156.651 293.495 146.241 301.621 138.636C309.747 131.03 320.461 126.799 331.591 126.799C342.72 126.799 353.434 131.03 361.56 138.636C369.686 146.241 374.616 156.651 375.352 167.757H475.725V19.5152H480.312C480.632 19.5152 480.871 16.9739 480.871 15.6153C480.867 11.4752 479.221 7.50585 476.293 4.57832C473.365 1.65079 469.396 0.00423112 465.256 0H16.4069C12.2876 0.0168309 8.34182 1.6607 5.42901 4.57351C2.51619 7.48633 0.8723 11.4321 0.855469 15.5514ZM424.995 31.1508H456.226V93.5961H424.995V31.1508ZM339.134 31.1508H413.295V93.5961H339.134V31.1508ZM257.19 31.1508H331.271V93.5961H257.19V31.1508ZM218.16 31.1508H249.374V93.5961H218.16V31.1508ZM179.129 50.6659H206.46V152.174H179.129V50.6659ZM142.624 50.5061L170.914 50.7938L171.202 151.934L142.672 152.174L142.624 50.5061ZM101.069 31.1508H132.283V93.5961H101.117L101.069 31.1508ZM46.4389 31.1508H93.2689V93.5961H46.4548L46.4389 31.1508ZM30.7915 34.9707H45.0484V116.244L19.0281 126.649C19.0281 126.649 21.01 72.0511 30.7915 34.9707Z" fill="#282828" fill-opacity="0.1"/>
</svg>
